<svg width="225" height="225" viewBox="0 0 225 225" fill="none" xmlns="http://www.w3.org/2000/svg">
<path d="M105.67 89.5083L90.607 74.5903C88.869 72.8523 88 70.6797 88 68.2175L88 8.83496C88 4.05539 92.0554 -5.63988e-07 96.9798 -1.24883e-06L126.961 -5.41831e-06C131.885 -6.10315e-06 135.941 4.05539 135.941 8.97979L135.941 68.3624C135.941 70.6797 135.072 72.9971 133.334 74.7351L118.271 89.798C114.795 92.9844 109.146 92.9844 105.67 89.5083Z" fill="url(#paint0_linear_242_50)"/>
<path d="M133.044 8.97908C133.044 5.64786 130.292 2.89599 126.961 2.89599L96.9801 2.896C93.6488 2.896 90.897 5.64787 90.897 8.97909L90.897 68.3616C90.897 69.9548 91.4763 71.548 92.635 72.5619L107.698 87.6248C110.015 89.9421 113.926 89.9421 116.243 87.6248L131.161 72.5619C132.32 71.4032 132.899 69.9548 132.899 68.3616L132.899 8.97908L133.044 8.97908Z" fill="url(#paint1_linear_242_50)"/>
<path d="M130.003 8.97953C130.003 7.38634 128.699 5.93798 126.961 5.93798L96.98 5.93799C95.3868 5.93799 93.9385 7.24151 93.9385 8.97953L93.9385 68.3621C93.9385 69.0863 94.2282 69.9553 94.8075 70.5346L109.87 85.5975C111.029 86.7562 112.912 86.7562 114.071 85.5975L129.134 70.3898C129.713 69.8104 130.003 69.0863 130.003 68.2172L130.003 8.97953Z" fill="#1A2865"/>
<path opacity="0.44" d="M111.835 9.90918L127.759 10.0517L127.759 68.3365L127.613 68.479L112.42 83.1571L111.835 82.587L111.835 9.90918Z" fill="url(#paint2_linear_242_50)"/>
<path d="M120.444 45.478L113.492 32.298C112.767 30.9944 110.885 30.9944 110.16 32.298L103.208 45.478C102.629 46.7815 103.498 48.2299 104.801 48.2299L118.561 48.2299C120.299 48.2299 121.168 46.7815 120.444 45.478Z" fill="white"/>
<path d="M105.67 134.797L90.607 149.715C88.869 151.453 88 153.626 88 156.088L88 215.471C88 220.25 92.0554 224.306 96.9798 224.306L126.961 224.306C131.885 224.306 135.941 220.25 135.941 215.326L135.941 155.943C135.941 153.626 135.072 151.309 133.334 149.571L118.271 134.508C114.795 131.321 109.146 131.321 105.67 134.797Z" fill="url(#paint3_linear_242_50)"/>
<path d="M133.044 215.326C133.044 218.657 130.292 221.409 126.961 221.409L96.9801 221.409C93.6488 221.409 90.897 218.657 90.897 215.326L90.897 155.944C90.897 154.35 91.4763 152.757 92.635 151.743L107.698 136.68C110.015 134.363 113.926 134.363 116.243 136.68L131.161 151.743C132.32 152.902 132.899 154.35 132.899 155.944L132.899 215.326L133.044 215.326Z" fill="url(#paint4_linear_242_50)"/>
<path d="M130.003 215.326C130.003 216.919 128.699 218.368 126.961 218.368L96.98 218.368C95.3868 218.368 93.9385 217.064 93.9385 215.326L93.9385 155.944C93.9385 155.219 94.2282 154.35 94.8075 153.771L109.87 138.708C111.029 137.549 112.912 137.549 114.071 138.708L129.134 153.916C129.713 154.495 130.003 155.219 130.003 156.088L130.003 215.326Z" fill="#1A2865"/>
<path opacity="0.44" d="M111.318 215.472L127.105 215.327L127.105 156.089L126.961 155.944L111.898 141.026L111.318 141.606L111.318 215.472Z" fill="url(#paint5_linear_242_50)"/>
<path d="M120.444 178.827L113.492 192.007C112.767 193.311 110.885 193.311 110.16 192.007L103.208 178.827C102.629 177.524 103.498 176.076 104.801 176.076L118.561 176.076C120.299 176.076 121.168 177.524 120.444 178.827Z" fill="white"/>
<path d="M134.797 105.67L149.715 90.607C151.453 88.869 153.626 88 156.088 88L215.471 88C220.25 88 224.306 92.0554 224.306 96.9798L224.306 126.961C224.306 131.885 220.25 135.941 215.326 135.941L155.943 135.941C153.626 135.941 151.309 135.072 149.571 133.334L134.508 118.271C131.321 114.795 131.321 109.146 134.797 105.67Z" fill="url(#paint6_linear_242_50)"/>
<path d="M215.327 133.044C218.658 133.044 221.41 130.292 221.41 126.961L221.41 96.9801C221.41 93.6488 218.658 90.897 215.327 90.897L155.944 90.897C154.351 90.897 152.758 91.4763 151.744 92.635L136.681 107.698C134.364 110.015 134.364 113.926 136.681 116.243L151.744 131.161C152.902 132.32 154.351 132.899 155.944 132.899L215.327 132.899L215.327 133.044Z" fill="url(#paint7_linear_242_50)"/>
<path d="M215.326 130.003C216.919 130.003 218.368 128.699 218.368 126.961L218.368 96.98C218.368 95.3868 217.064 93.9385 215.326 93.9385L155.944 93.9385C155.219 93.9385 154.35 94.2282 153.771 94.8075L138.708 109.87C137.549 111.029 137.549 112.912 138.708 114.071L153.916 129.133C154.495 129.713 155.219 130.003 156.088 130.003L215.326 130.003Z" fill="#1A2865"/>
<path opacity="0.44" d="M214.396 111.835L214.254 127.759L155.969 127.759L155.827 127.613L141.149 112.42L141.719 111.835L214.396 111.835Z" fill="url(#paint8_linear_242_50)"/>
<path d="M178.828 120.444L192.008 113.492C193.311 112.767 193.311 110.885 192.008 110.16L178.828 103.208C177.524 102.629 176.076 103.498 176.076 104.801L176.076 118.561C176.076 120.299 177.524 121.168 178.828 120.444Z" fill="white"/>
<path d="M89.5083 105.67L74.5903 90.6071C72.8523 88.869 70.6797 88 68.2175 88L8.83496 88C4.05539 88 -7.41255e-07 92.0554 -1.64135e-06 96.9798L-7.12134e-06 126.961C-8.02143e-06 131.885 4.05538 135.941 8.97979 135.941L68.3623 135.941C70.6797 135.941 72.9971 135.072 74.7351 133.334L89.798 118.271C92.9844 114.795 92.9844 109.146 89.5083 105.67Z" fill="url(#paint9_linear_242_50)"/>
<path d="M8.97908 133.044C5.64786 133.044 2.89599 130.292 2.89599 126.961L2.89599 96.9801C2.896 93.6488 5.64787 90.897 8.97909 90.897L68.3616 90.897C69.9548 90.897 71.548 91.4763 72.5619 92.635L87.6248 107.698C89.9421 110.015 89.9421 113.926 87.6248 116.243L72.5619 131.161C71.4032 132.32 69.9548 132.899 68.3616 132.899L8.97908 132.899L8.97908 133.044Z" fill="url(#paint10_linear_242_50)"/>
<path d="M8.97953 130.003C7.38634 130.003 5.93798 128.699 5.93798 126.961L5.93799 96.98C5.93799 95.3868 7.24151 93.9385 8.97953 93.9385L68.3621 93.9385C69.0863 93.9385 69.9553 94.2282 70.5346 94.8075L85.5975 109.87C86.7562 111.029 86.7562 112.912 85.5975 114.071L70.3898 129.134C69.8104 129.713 69.0863 130.003 68.2172 130.003L8.97953 130.003Z" fill="#1A2865"/>
<path opacity="0.44" d="M8.83398 111.318L8.97882 127.105L68.2165 127.105L68.3614 126.961L83.2794 111.898L82.7001 111.318L8.83398 111.318Z" fill="url(#paint11_linear_242_50)"/>
<path d="M45.4782 120.444L32.2982 113.492C30.9947 112.767 30.9947 110.885 32.2982 110.16L45.4782 103.208C46.7817 102.629 48.2301 103.498 48.2301 104.801L48.2301 118.561C48.2301 120.299 46.7817 121.168 45.4782 120.444Z" fill="white"/>
<defs>
<linearGradient id="paint0_linear_242_50" x1="85.2612" y1="46.0838" x2="140.316" y2="46.0838" gradientUnits="userSpaceOnUse">
<stop offset="2.8e-07" stop-color="#FEEE70"/>
<stop offset="0.1638" stop-color="#FDE06B"/>
<stop offset="0.4699" stop-color="#F9BD5D"/>
<stop offset="0.6691" stop-color="#F7A252"/>
<stop offset="0.8907" stop-color="#F26A3C"/>
<stop offset="0.9955" stop-color="#EF4E31"/>
</linearGradient>
<linearGradient id="paint1_linear_242_50" x1="88.4972" y1="46.0817" x2="136.882" y2="46.0817" gradientUnits="userSpaceOnUse">
<stop stop-color="white"/>
<stop offset="1" stop-color="white" stop-opacity="0"/>
</linearGradient>
<linearGradient id="paint2_linear_242_50" x1="98.8881" y1="46.5663" x2="126.188" y2="46.5663" gradientUnits="userSpaceOnUse">
<stop stop-color="#7D9AFA"/>
<stop offset="0.0322061" stop-color="#7791F2"/>
<stop offset="0.2125" stop-color="#5B61CC"/>
<stop offset="0.384" stop-color="#453CAD"/>
<stop offset="0.5424" stop-color="#352197"/>
<stop offset="0.6829" stop-color="#2B118A"/>
<stop offset="0.791" stop-color="#280B85"/>
</linearGradient>
<linearGradient id="paint3_linear_242_50" x1="85.2612" y1="178.222" x2="140.316" y2="178.222" gradientUnits="userSpaceOnUse">
<stop offset="2.8e-07" stop-color="#FEEE70"/>
<stop offset="0.1638" stop-color="#FDE06B"/>
<stop offset="0.4699" stop-color="#F9BD5D"/>
<stop offset="0.6691" stop-color="#F7A252"/>
<stop offset="0.8907" stop-color="#F26A3C"/>
<stop offset="0.9955" stop-color="#EF4E31"/>
</linearGradient>
<linearGradient id="paint4_linear_242_50" x1="88.4972" y1="178.223" x2="136.882" y2="178.223" gradientUnits="userSpaceOnUse">
<stop stop-color="white"/>
<stop offset="1" stop-color="white" stop-opacity="0"/>
</linearGradient>
<linearGradient id="paint5_linear_242_50" x1="98.4819" y1="178.215" x2="125.548" y2="178.215" gradientUnits="userSpaceOnUse">
<stop stop-color="#7D9AFA"/>
<stop offset="0.0322061" stop-color="#7791F2"/>
<stop offset="0.2125" stop-color="#5B61CC"/>
<stop offset="0.384" stop-color="#453CAD"/>
<stop offset="0.5424" stop-color="#352197"/>
<stop offset="0.6829" stop-color="#2B118A"/>
<stop offset="0.791" stop-color="#280B85"/>
</linearGradient>
<linearGradient id="paint6_linear_242_50" x1="178.222" y1="85.2612" x2="178.222" y2="140.316" gradientUnits="userSpaceOnUse">
<stop offset="2.8e-07" stop-color="#FEEE70"/>
<stop offset="0.1638" stop-color="#FDE06B"/>
<stop offset="0.4699" stop-color="#F9BD5D"/>
<stop offset="0.6691" stop-color="#F7A252"/>
<stop offset="0.8907" stop-color="#F26A3C"/>
<stop offset="0.9955" stop-color="#EF4E31"/>
</linearGradient>
<linearGradient id="paint7_linear_242_50" x1="178.224" y1="88.4972" x2="178.224" y2="136.882" gradientUnits="userSpaceOnUse">
<stop stop-color="white"/>
<stop offset="1" stop-color="white" stop-opacity="0"/>
</linearGradient>
<linearGradient id="paint8_linear_242_50" x1="177.739" y1="98.8881" x2="177.739" y2="126.188" gradientUnits="userSpaceOnUse">
<stop stop-color="#7D9AFA"/>
<stop offset="0.0322061" stop-color="#7791F2"/>
<stop offset="0.2125" stop-color="#5B61CC"/>
<stop offset="0.384" stop-color="#453CAD"/>
<stop offset="0.5424" stop-color="#352197"/>
<stop offset="0.6829" stop-color="#2B118A"/>
<stop offset="0.791" stop-color="#280B85"/>
</linearGradient>
<linearGradient id="paint9_linear_242_50" x1="46.0838" y1="85.2612" x2="46.0837" y2="140.316" gradientUnits="userSpaceOnUse">
<stop offset="2.8e-07" stop-color="#FEEE70"/>
<stop offset="0.1638" stop-color="#FDE06B"/>
<stop offset="0.4699" stop-color="#F9BD5D"/>
<stop offset="0.6691" stop-color="#F7A252"/>
<stop offset="0.8907" stop-color="#F26A3C"/>
<stop offset="0.9955" stop-color="#EF4E31"/>
</linearGradient>
<linearGradient id="paint10_linear_242_50" x1="46.0817" y1="88.4972" x2="46.0817" y2="136.882" gradientUnits="userSpaceOnUse">
<stop stop-color="white"/>
<stop offset="1" stop-color="white" stop-opacity="0"/>
</linearGradient>
<linearGradient id="paint11_linear_242_50" x1="46.0905" y1="98.4819" x2="46.0905" y2="125.548" gradientUnits="userSpaceOnUse">
<stop stop-color="#7D9AFA"/>
<stop offset="0.0322061" stop-color="#7791F2"/>
<stop offset="0.2125" stop-color="#5B61CC"/>
<stop offset="0.384" stop-color="#453CAD"/>
<stop offset="0.5424" stop-color="#352197"/>
<stop offset="0.6829" stop-color="#2B118A"/>
<stop offset="0.791" stop-color="#280B85"/>
</linearGradient>
</defs>
</svg>
