<svg width="306" height="306" viewBox="0 0 306 306" fill="none" xmlns="http://www.w3.org/2000/svg">
<g filter="url(#filter0_dd_148_438)">
<path d="M152.499 296.999C73.1118 296.874 8.75029 232.012 9.00073 152.374C9.25116 72.8613 74.1136 8.7503 153.877 9.00073C233.014 9.25116 297.125 73.9882 297 153.376C296.875 232.888 232.137 297.25 152.499 296.999ZM152.875 285.73C226.127 285.73 285.605 226.377 285.73 153.376C285.855 80.1239 226.503 20.3955 153.501 20.2702C79.9988 20.145 20.2703 79.623 20.2703 153C20.2703 226.252 79.7483 285.73 152.875 285.73Z" fill="white"/>
<path d="M153.433 25.8001C223.827 25.9447 280.488 83.0398 280.199 153.578C279.91 223.971 222.815 280.488 152.277 280.199C82.1727 279.91 25.6557 222.959 25.8003 152.71C25.9448 82.3171 82.8954 25.6556 153.433 25.8001ZM146.64 206.336C146.64 212.263 146.64 217.033 146.64 221.803C146.64 226.284 147.507 230.62 152.711 230.764C158.492 230.909 159.504 226.428 159.504 221.803C159.504 209.806 159.649 197.664 159.36 185.667C159.215 180.897 160.082 178.15 164.997 175.693C178.729 168.899 182.776 152.277 174.681 139.268C166.876 126.692 150.253 123.512 137.967 131.896C125.97 140.28 122.356 158.059 132.763 168.466C139.846 175.548 139.123 181.619 136.377 189.136C135.365 191.882 134.787 194.773 134.209 197.519C133.342 200.988 131.896 204.602 135.076 207.637C138.69 210.962 142.303 209.083 146.64 206.336ZM89.689 54.9982C91.5681 59.7681 93.5917 64.9717 98.0726 68.5854C100.096 70.1754 102.698 69.7417 104.866 68.1517C107.179 66.4172 108.191 63.8154 107.034 61.069C105.3 57.4554 103.276 53.8418 100.819 50.5173C99.0844 48.2046 96.4826 47.6264 93.7363 48.9273C91.1345 49.9391 90.2672 51.9627 89.689 54.9982ZM216.166 54.42C215.732 50.9509 213.708 48.4937 209.661 48.3491C206.048 48.2046 198.387 58.3227 198.531 63.0927C198.676 66.9954 200.844 69.3081 204.891 69.4526C208.794 69.3081 216.166 59.479 216.166 54.42ZM62.3701 198.531C57.7447 200.121 52.9747 202.434 49.3611 206.481C47.6265 208.36 47.7711 211.106 49.3611 213.275C50.9511 215.587 53.5529 217.177 56.1547 215.876C60.0574 214.142 63.8155 211.974 67.4291 209.516C69.7419 207.782 70.031 204.891 68.73 202.289C67.5737 199.832 65.4055 198.676 62.3701 198.531ZM53.9865 89.8334C50.662 90.5562 48.2047 92.5798 48.2047 96.627C48.3493 100.241 58.6119 107.757 63.0928 107.468C66.9955 107.179 69.1637 104.866 69.1637 100.819C69.1637 97.2052 58.7565 89.6889 53.9865 89.8334ZM257.795 96.0489C257.361 92.5798 255.626 90.5562 252.446 89.978C249.266 89.2552 238.426 95.4707 237.269 98.5061C236.113 101.542 236.691 104.288 239.437 106.167C242.762 108.48 245.942 107.034 248.833 105.155C252.446 102.842 257.505 101.686 257.795 96.0489ZM242.039 198.676C239.004 199.254 236.546 201.277 236.691 205.325C236.836 208.938 247.243 216.599 251.579 216.165C255.482 215.732 257.795 213.564 257.65 209.516C257.65 205.758 247.387 198.386 242.039 198.676ZM107.468 242.617C107.034 239.148 105.011 236.835 100.964 236.835C97.3499 236.835 89.689 246.953 89.9781 251.579C90.2672 255.482 92.4354 257.794 96.4826 257.794C100.096 257.794 107.468 247.676 107.468 242.617ZM204.747 236.691C201.422 236.835 199.254 238.714 198.676 242.328C198.098 246.231 204.747 256.638 208.216 257.505C211.396 258.373 213.853 257.072 215.298 254.181C217.756 249.411 210.384 236.835 204.747 236.691ZM146.495 43.8682C146.64 46.9037 145.917 50.2282 147.941 52.9745C149.675 55.2873 152.132 56.2991 154.879 55.1427C159.504 53.4082 159.504 49.3609 159.36 45.4582C159.215 41.1219 160.66 35.9183 155.168 33.461C152.421 32.3047 149.964 33.0274 148.085 35.3401C146.206 37.9419 146.64 40.9773 146.495 43.8682ZM46.3256 146.639C43.1456 146.639 41.9893 146.639 40.8329 146.639C36.4966 146.784 33.1721 148.374 33.3166 153.289C33.4611 157.769 36.6411 159.359 40.6884 159.359C44.0129 159.359 47.482 159.504 50.8065 158.926C53.9865 158.348 55.721 155.89 55.5765 152.71C55.4319 149.819 53.8419 147.651 50.9511 147.073C48.7829 146.639 46.4702 146.639 46.3256 146.639ZM261.697 159.648C261.697 159.504 261.697 159.504 261.697 159.359C263.432 159.359 265.022 159.504 266.756 159.359C270.659 158.926 272.972 156.758 272.827 152.71C272.683 149.097 270.37 146.929 266.756 146.784C262.998 146.639 259.095 146.639 255.337 147.073C252.446 147.362 250.712 149.819 250.567 152.71C250.423 155.89 252.013 158.348 255.337 159.07C257.361 159.504 259.529 159.359 261.697 159.648ZM146.495 261.263C146.64 263.432 146.495 265.6 146.929 267.768C147.651 271.382 150.109 273.405 153.578 272.827C159.938 271.815 159.36 266.756 159.36 262.131C159.36 257.361 160.371 251.868 153.722 250.567C150.253 249.844 147.651 252.013 146.929 255.482C146.495 257.361 146.64 259.384 146.495 261.263Z" fill="white"/>
<path d="M153.454 137.412C161.725 137.757 168.446 145.167 168.273 153.438C167.929 162.054 160.174 169.119 151.731 168.429C143.46 167.74 136.912 160.158 137.429 152.059C137.773 143.788 145.355 137.068 153.454 137.412Z" fill="white"/>
</g>
<defs>
<filter id="filter0_dd_148_438" x="0.489362" y="0.489362" width="305.021" height="305.021" filterUnits="userSpaceOnUse" color-interpolation-filters="sRGB">
<feFlood flood-opacity="0" result="BackgroundImageFix"/>
<feColorMatrix in="SourceAlpha" type="matrix" values="0 0 0 0 0 0 0 0 0 0 0 0 0 0 0 0 0 0 127 0" result="hardAlpha"/>
<feOffset/>
<feGaussianBlur stdDeviation="4.25532"/>
<feComposite in2="hardAlpha" operator="out"/>
<feColorMatrix type="matrix" values="0 0 0 0 1 0 0 0 0 1 0 0 0 0 1 0 0 0 0.6 0"/>
<feBlend mode="normal" in2="BackgroundImageFix" result="effect1_dropShadow_148_438"/>
<feColorMatrix in="SourceAlpha" type="matrix" values="0 0 0 0 0 0 0 0 0 0 0 0 0 0 0 0 0 0 127 0" result="hardAlpha"/>
<feOffset dy="1.94219"/>
<feGaussianBlur stdDeviation="0.971094"/>
<feComposite in2="hardAlpha" operator="out"/>
<feColorMatrix type="matrix" values="0 0 0 0 0 0 0 0 0 0 0 0 0 0 0 0 0 0 0.35 0"/>
<feBlend mode="normal" in2="effect1_dropShadow_148_438" result="effect2_dropShadow_148_438"/>
<feBlend mode="normal" in="SourceGraphic" in2="effect2_dropShadow_148_438" result="shape"/>
</filter>
</defs>
</svg>
