<svg width="18" height="18" viewBox="0 0 18 18" fill="none" xmlns="http://www.w3.org/2000/svg">
<g clip-path="url(#clip0_82_431)">
<path d="M9.18536 0.294678C13.9296 0.294678 17.7746 4.15315 17.7679 8.89738C17.7612 13.6349 13.9028 17.48 9.15181 17.4733C4.41428 17.4665 0.582654 13.6014 0.589364 8.85041C0.596075 4.13302 4.45454 0.294678 9.18536 0.294678ZM9.20549 2.17358C5.44768 2.18701 2.57564 5.13286 2.47498 8.67594C2.36761 12.6082 5.47452 15.5205 9.0176 15.5943C12.9163 15.6749 15.8219 12.568 15.8823 9.03159C15.9561 5.17983 12.8761 2.19372 9.20549 2.17358ZM17.0969 9.36711C17.0969 9.24632 17.0969 9.11883 17.0969 8.99804C17.1036 8.79673 17.0499 8.62897 16.8151 8.62897C16.6003 8.62897 16.4863 8.7766 16.493 8.98462C16.5064 9.4208 16.4259 9.85026 16.352 10.273C16.1239 11.5882 15.5401 12.7424 14.6745 13.749C13.943 14.5945 13.0505 15.2387 12.0239 15.6816C11.8091 15.7755 11.6346 15.9164 11.7554 16.1647C11.8695 16.4063 12.0708 16.3459 12.2721 16.2587C13.4934 15.742 14.5268 14.9703 15.3589 13.9302C16.4393 12.5948 17.0231 11.0783 17.0969 9.36711ZM5.35373 2.57621C5.47452 2.58963 5.57518 2.53594 5.67583 2.48226C5.99122 2.29437 6.32674 2.14674 6.67568 2.02596C7.45408 1.74412 8.25933 1.58307 9.09141 1.57636C9.31286 1.57636 9.49404 1.48242 9.50075 1.27439C9.51417 1.0194 9.31286 0.972426 9.0847 0.965716C8.5613 0.959005 8.03789 0.992557 7.5279 1.10663C6.72936 1.28781 5.97109 1.57636 5.25308 1.96556C5.09874 2.04609 5.0115 2.16687 5.05177 2.34805C5.08532 2.49568 5.17926 2.59634 5.35373 2.57621ZM1.2604 9.34027C1.2604 9.59527 1.28053 9.85026 1.3208 10.1053C1.44829 10.9642 1.73013 11.7627 2.11933 12.5344C2.2267 12.7424 2.38104 12.9437 2.64274 12.8095C2.88431 12.682 2.79037 12.4673 2.68971 12.2593C2.46156 11.7896 2.26025 11.3064 2.13275 10.7964C1.97841 10.1925 1.87105 9.58184 1.87105 8.95778C1.87105 8.73634 1.76368 8.57529 1.54895 8.57529C1.34093 8.57529 1.24698 8.72963 1.26711 8.95107C1.26711 9.07186 1.2604 9.20606 1.2604 9.34027ZM2.46827 4.73024C2.46156 4.87787 2.53537 5.01208 2.66287 5.04563C2.80379 5.08589 2.938 5.06576 3.01852 4.93826C3.37417 4.39472 3.80364 3.92499 4.27336 3.4754C4.41428 3.34119 4.49481 3.1533 4.30691 2.97883C4.13244 2.81107 3.9714 2.85804 3.81035 3.01238C3.35404 3.44856 2.91787 3.91157 2.58235 4.4484C2.52866 4.53564 2.47498 4.62287 2.46827 4.73024Z" fill="#FEB704"/>
<path d="M9.20526 2.17358C12.8758 2.19372 15.9559 5.17983 15.8888 9.02488C15.8217 12.5613 12.9228 15.6682 9.02408 15.5876C5.481 15.5138 2.3741 12.6015 2.48146 8.66923C2.5687 5.13286 5.44074 2.187 9.20526 2.17358ZM9.19184 3.24724C6.02454 3.32106 3.56854 5.69653 3.56183 8.87054C3.55512 12.0513 6.00441 14.5073 9.19855 14.5006C12.3457 14.4938 14.8084 12.0513 14.795 8.86383C14.7883 5.73008 12.3726 3.33448 9.19184 3.24724Z" fill="#F89300"/>
<path d="M17.097 9.36742C17.0232 11.0786 16.4394 12.6018 15.3657 13.9372C14.5336 14.9773 13.5002 15.749 12.279 16.2657C12.0776 16.3529 11.8696 16.4066 11.7623 16.1717C11.6415 15.9167 11.8159 15.7758 12.0307 15.6886C13.0574 15.239 13.9498 14.6015 14.6813 13.756C15.5469 12.7494 16.1307 11.602 16.3589 10.28C16.4327 9.85056 16.5065 9.42781 16.4998 8.99164C16.4931 8.78361 16.6071 8.6427 16.8219 8.63599C17.0567 8.63599 17.1104 8.80375 17.1037 9.00506C17.097 9.11913 17.097 9.23992 17.097 9.36742Z" fill="#FECB28"/>
<path d="M5.35387 2.57639C5.1794 2.60323 5.07874 2.49587 5.04519 2.34153C5.00493 2.16706 5.09216 2.04627 5.2465 1.95904C5.96451 1.56984 6.72278 1.28129 7.52132 1.10011C8.03802 0.986032 8.55472 0.95248 9.07813 0.959191C9.31299 0.959191 9.50759 1.01287 9.49417 1.26787C9.48746 1.47589 9.30628 1.56984 9.08484 1.56984C8.25275 1.57655 7.4475 1.73088 6.6691 2.01943C6.32687 2.14693 5.98464 2.28785 5.66925 2.47574C5.57531 2.53613 5.47465 2.58981 5.35387 2.57639Z" fill="#FECB28"/>
<path d="M1.26023 9.33993C1.26023 9.20572 1.26694 9.07151 1.26023 8.93731C1.2401 8.72257 1.33405 8.56823 1.54207 8.56152C1.7568 8.56152 1.86417 8.72928 1.86417 8.94401C1.86417 9.56808 1.97153 10.1787 2.12587 10.7827C2.26008 11.2926 2.45468 11.7758 2.68283 12.2455C2.78349 12.4535 2.87743 12.6683 2.63586 12.7958C2.38087 12.9367 2.21982 12.7354 2.11245 12.5206C1.72325 11.749 1.44812 10.9504 1.31392 10.0915C1.28036 9.84992 1.26023 9.60163 1.26023 9.33993Z" fill="#FECB28"/>
<path d="M2.46844 4.72377C2.47515 4.61641 2.52212 4.53588 2.57581 4.44865C2.91803 3.91182 3.35421 3.4488 3.81051 3.01263C3.97156 2.85829 4.13261 2.81802 4.30708 2.97907C4.49497 3.16025 4.41445 3.34143 4.27353 3.47564C3.8038 3.91853 3.37434 4.39496 3.01869 4.9385C2.93146 5.066 2.79725 5.08613 2.66304 5.04587C2.53554 5.00561 2.46173 4.87811 2.46844 4.72377Z" fill="#FECB28"/>
<path d="M9.19203 3.24719C12.366 3.33443 14.7885 5.72332 14.7952 8.86378C14.8019 12.0512 12.3459 14.4938 9.19874 14.5005C6.01131 14.5072 3.55532 12.0445 3.56203 8.87049C3.56874 5.69648 6.02473 3.32101 9.19203 3.24719ZM9.16519 11.8298C9.95702 11.8298 10.7556 11.8163 11.5474 11.8365C11.8628 11.8432 11.9903 11.709 12.0574 11.4339C12.1245 11.1654 12.1983 10.897 12.2788 10.6286C12.5674 9.63547 12.8559 8.64234 13.1444 7.64249C13.1646 7.56197 13.2384 7.47473 13.1512 7.39421C13.0505 7.30026 12.9633 7.39421 12.876 7.43447C12.3124 7.67604 11.742 7.91091 11.1984 8.17932C10.9099 8.32024 10.7488 8.25314 10.5878 8.00485C10.212 7.43447 9.82952 6.87751 9.44032 6.31384C9.21887 5.99174 9.13835 5.99174 8.91691 6.31384C8.52771 6.88422 8.1385 7.4546 7.7493 8.03169C7.60167 8.25314 7.44734 8.31353 7.18563 8.18603C6.61525 7.91091 6.02473 7.66262 5.44764 7.40763C5.38054 7.38079 5.31343 7.31368 5.23291 7.36737C5.12554 7.43447 5.19265 7.5217 5.21278 7.60894C5.2262 7.66262 5.23291 7.71631 5.24633 7.76999C5.60198 8.99799 5.96434 10.226 6.31328 11.4607C6.39381 11.7358 6.53472 11.8298 6.81656 11.8231C7.60167 11.8231 8.38008 11.8298 9.16519 11.8298Z" fill="#FECB29"/>
<path d="M9.16532 11.8301C8.3802 11.8301 7.6018 11.8167 6.81668 11.8369C6.53485 11.8436 6.39393 11.7496 6.31341 11.4745C5.96447 10.2398 5.60211 9.01178 5.24646 7.78379C5.23304 7.7301 5.22632 7.67642 5.2129 7.62274C5.19277 7.54221 5.13238 7.44827 5.23304 7.38116C5.31356 7.32748 5.38066 7.39458 5.44777 7.42142C6.03157 7.67642 6.61537 7.9247 7.18576 8.19983C7.44746 8.32733 7.6018 8.26022 7.74943 8.04549C8.13192 7.4684 8.52112 6.89802 8.91703 6.32763C9.13848 6.00554 9.219 6.00554 9.44044 6.32763C9.82293 6.89131 10.2121 7.44827 10.5879 8.01865C10.749 8.26693 10.91 8.33404 11.1986 8.19312C11.7488 7.9247 12.3192 7.68984 12.8762 7.44827C12.9634 7.41471 13.0439 7.31406 13.1513 7.408C13.2385 7.48853 13.1647 7.58247 13.1446 7.65629C12.856 8.64942 12.5675 9.64256 12.2789 10.6424C12.1984 10.9108 12.1246 11.1792 12.0575 11.4477C11.9904 11.7228 11.8629 11.857 11.5475 11.8503C10.749 11.8167 9.95714 11.8301 9.16532 11.8301Z" fill="#F89300"/>
</g>
<defs>
<clipPath id="clip0_82_431">
<rect width="17.1786" height="17.1786" fill="white" transform="translate(0.589355 0.294678)"/>
</clipPath>
</defs>
</svg>
