<svg width="60" height="59" viewBox="0 0 60 59" fill="none" xmlns="http://www.w3.org/2000/svg">
<path opacity="0.4" d="M38.6233 50.2313C50.0957 45.5616 55.6104 32.4758 50.9407 21.0033C46.2709 9.53088 33.1851 4.01619 21.7126 8.68593C10.2402 13.3557 4.72552 26.4415 9.39526 37.914C14.065 49.3864 27.1508 54.9011 38.6233 50.2313Z" fill="#202628"/>
<g filter="url(#filter0_b_1_857)">
<path d="M30.1769 48.9592C42.5635 48.9592 52.6048 38.9179 52.6048 26.5313C52.6048 14.1447 42.5635 4.10339 30.1769 4.10339C17.7903 4.10339 7.74902 14.1447 7.74902 26.5313C7.74902 38.9179 17.7903 48.9592 30.1769 48.9592Z" fill="#1A265B" fill-opacity="0.61"/>
<path d="M50.6502 26.5313C50.6502 37.8384 41.484 47.0046 30.1769 47.0046C18.8698 47.0046 9.70357 37.8384 9.70357 26.5313C9.70357 15.2242 18.8698 6.05794 30.1769 6.05794C41.484 6.05794 50.6502 15.2242 50.6502 26.5313Z" stroke="url(#paint0_linear_1_857)" stroke-width="3.90909"/>
</g>
<path d="M49.7986 31.5042C52.5421 20.6708 45.984 9.66449 35.1506 6.92093C24.3171 4.17737 13.3108 10.7355 10.5673 21.5689C7.8237 32.4024 14.3818 43.4087 25.2153 46.1522C36.0487 48.8958 47.055 42.3377 49.7986 31.5042Z" fill="#FCF2D1"/>
<path d="M30.1751 45.4942C40.648 45.4942 49.1379 37.0043 49.1379 26.5315C49.1379 16.0586 40.648 7.56873 30.1751 7.56873C19.7023 7.56873 11.2124 16.0586 11.2124 26.5315C11.2124 37.0043 19.7023 45.4942 30.1751 45.4942Z" fill="url(#paint1_linear_1_857)"/>
<path opacity="0.15" fill-rule="evenodd" clip-rule="evenodd" d="M14.1048 27.193C18.9893 28.8876 23.8747 29.494 28.5369 27.193C33.2001 24.8911 39.8606 23.3913 43.7465 23.8916C44.8165 24.0297 46.2093 24.3443 47.6625 24.7247C46.4589 16.1327 39.0997 9.51428 30.1758 9.51428C20.6263 9.51428 12.8656 17.0921 12.5291 26.5592C13.0238 26.7842 13.546 26.9991 14.1048 27.193Z" fill="white"/>
<path opacity="0.15" fill-rule="evenodd" clip-rule="evenodd" d="M13.2168 31.5535C16.1186 38.4253 22.9867 44.0615 30.0962 44.0615C35.0996 44.003 40.6014 41.2485 43.1923 37.8071C44.1333 33.9652 36.0132 38.5844 30.0962 38.5103C22.7654 38.6585 14.9196 28.1488 13.2168 31.5535Z" fill="white"/>
<path d="M42.6484 29.8508V25.3508L17.9562 25.3508V29.8508L42.6484 29.8508Z" fill="#7E0013"/>
<path d="M42.6484 28.0221V23.5221L17.9562 23.5221V28.0221L42.6484 28.0221Z" fill="white"/>
<defs>
<filter id="filter0_b_1_857" x="-5.94004" y="-9.58567" width="72.2338" height="72.2338" filterUnits="userSpaceOnUse" color-interpolation-filters="sRGB">
<feFlood flood-opacity="0" result="BackgroundImageFix"/>
<feGaussianBlur in="BackgroundImageFix" stdDeviation="6.84453"/>
<feComposite in2="SourceAlpha" operator="in" result="effect1_backgroundBlur_1_857"/>
<feBlend mode="normal" in="SourceGraphic" in2="effect1_backgroundBlur_1_857" result="shape"/>
</filter>
<linearGradient id="paint0_linear_1_857" x1="5.83657" y1="0.626739" x2="63.9977" y2="35.0857" gradientUnits="userSpaceOnUse">
<stop offset="0.00716879" stop-color="#737373"/>
<stop offset="0.175" stop-color="white"/>
<stop offset="0.365" stop-color="#737373"/>
<stop offset="0.691978" stop-color="white"/>
<stop offset="0.955" stop-color="#737373"/>
</linearGradient>
<linearGradient id="paint1_linear_1_857" x1="29.8696" y1="8.79739" x2="30.4617" y2="43.1396" gradientUnits="userSpaceOnUse">
<stop stop-color="#DF0025"/>
<stop offset="1" stop-color="#9C0016"/>
</linearGradient>
</defs>
</svg>
