<svg width="161" height="161" viewBox="0 0 161 161" fill="none" xmlns="http://www.w3.org/2000/svg">
<path opacity="0.4" d="M103.788 137.712C135.385 124.851 150.574 88.8098 137.712 57.2123C124.851 25.6148 88.8098 10.4262 57.2123 23.2877C25.6148 36.1491 10.4263 72.1902 23.2877 103.788C36.1491 135.385 72.1902 150.574 103.788 137.712Z" fill="#202628"/>
<g filter="url(#filter0_b_82_158)">
<path d="M80.5249 134.208C114.64 134.208 142.296 106.553 142.296 72.4374C142.296 38.3223 114.64 10.6664 80.5249 10.6664C46.4097 10.6664 18.7539 38.3223 18.7539 72.4374C18.7539 106.553 46.4097 134.208 80.5249 134.208Z" fill="#1A265B" fill-opacity="0.61"/>
<path d="M136.913 72.4374C136.913 103.58 111.667 128.825 80.5249 128.825C49.3828 128.825 24.1371 103.58 24.1371 72.4374C24.1371 41.2953 49.3828 16.0496 80.5249 16.0496C111.667 16.0496 136.913 41.2953 136.913 72.4374Z" stroke="url(#paint0_linear_82_158)" stroke-width="10.7664"/>
</g>
<path d="M134.567 86.1343C142.123 56.2968 124.06 25.9831 94.223 18.4267C64.3855 10.8704 34.0718 28.9329 26.5154 58.7704C18.9591 88.6079 37.0216 118.922 66.8591 126.478C96.6966 134.034 127.01 115.972 134.567 86.1343Z" fill="#FCF2D1"/>
<path d="M80.52 124.666C109.364 124.666 132.747 101.283 132.747 72.4383C132.747 43.5939 109.364 20.2109 80.52 20.2109C51.6756 20.2109 28.2927 43.5939 28.2927 72.4383C28.2927 101.283 51.6756 124.666 80.52 124.666Z" fill="url(#paint1_linear_82_158)"/>
<path opacity="0.15" fill-rule="evenodd" clip-rule="evenodd" d="M36.2586 74.2601C49.7115 78.9274 63.1669 80.5974 76.0078 74.2601C88.8511 67.9203 107.196 63.7895 117.898 65.1673C120.845 65.5476 124.681 66.414 128.683 67.4618C125.369 43.7977 105.1 25.5692 80.5214 25.5692C54.2201 25.5692 32.8456 46.44 31.9187 72.5146C33.2814 73.1342 34.7196 73.7261 36.2586 74.2601Z" fill="white"/>
<path opacity="0.15" fill-rule="evenodd" clip-rule="evenodd" d="M33.8125 86.2701C41.8046 105.196 60.7208 120.72 80.302 120.72C94.0823 120.559 109.235 112.972 116.371 103.494C118.963 92.9122 96.5986 105.635 80.302 105.431C60.1113 105.839 38.5025 76.8927 33.8125 86.2701Z" fill="white"/>
<g filter="url(#filter1_d_82_158)">
<path d="M87.4827 92.0381C87.2892 92.1883 87.2032 92.2956 87.1172 92.2956C85.1393 92.4029 84.3868 93.7122 83.9353 95.4292C83.6128 96.6311 83.3763 98.1764 82.5379 98.8203C81.6349 99.5071 80.044 98.8847 78.7755 99.0564C77.4856 99.2281 76.8406 98.7559 76.5181 97.5111C76.1956 96.2877 75.5937 95.1072 75.1852 93.9053C75.0347 93.4331 74.7552 93.2185 74.3037 93.0897C72.3473 92.5746 70.5414 91.7376 68.8429 90.6859C68.3055 90.364 67.8755 90.2996 67.2735 90.6001C65.8761 91.3298 64.4356 91.9308 63.0167 92.639C62.5007 92.8966 62.1567 92.918 61.7267 92.4673C60.8238 91.5015 59.8778 90.5571 58.9103 89.6557C58.5018 89.2694 58.4589 88.9689 58.7168 88.4538C59.4693 86.9943 60.1143 85.492 60.8453 84.011C61.0817 83.5388 61.0817 83.1954 60.8238 82.7233C59.8563 80.9633 59.0823 79.139 58.5878 77.1859C58.4589 76.6708 58.2009 76.4132 57.7064 76.2415C56.1154 75.705 54.546 75.0826 52.9766 74.546C52.5036 74.3743 52.3101 74.1382 52.3316 73.6231C52.3746 72.2709 52.3746 70.8973 52.3316 69.5452C52.3101 68.9871 52.4821 68.7296 53.0196 68.5364C54.5675 67.9999 56.0939 67.3989 57.6634 66.8623C58.2009 66.6906 58.4803 66.4116 58.6093 65.8536C59.0608 63.9434 59.7703 62.0976 60.7808 60.4021C61.0602 59.9299 61.1032 59.5436 60.8453 59.0285C60.1143 57.5905 59.4478 56.0881 58.7168 54.6286C58.4803 54.1779 58.5018 53.8774 58.8888 53.534C59.8778 52.654 60.8453 51.7526 61.7912 50.8297C62.1782 50.4434 62.5007 50.5078 62.9307 50.7224C64.4141 51.4521 65.8976 52.1389 67.381 52.8472C67.7895 53.0404 68.1335 53.1262 68.5634 52.8472C70.3909 51.7097 72.3043 50.7868 74.4112 50.2717C74.8627 50.1644 75.0132 49.8424 75.1422 49.4561C75.7012 47.9108 76.2816 46.3869 76.8191 44.8202C77.0126 44.2621 77.2921 44.0475 77.8941 44.069C79.227 44.1119 80.5385 44.1119 81.8714 44.069C82.4304 44.0475 82.6884 44.2407 82.8604 44.7772C83.3118 46.3226 83.8493 47.8249 84.3008 49.3703C84.4513 49.9068 84.7093 50.2073 85.2898 50.3361C87.2032 50.7868 89.0521 51.4951 90.7506 52.5038C91.288 52.8258 91.6965 52.7828 92.2125 52.5038C93.6099 51.7955 95.0719 51.1946 96.4693 50.4649C97.0498 50.1644 97.4153 50.2502 97.8453 50.7009C98.7052 51.6238 99.5867 52.5038 100.511 53.3623C101.006 53.813 101.027 54.1994 100.726 54.7574C100.017 56.1525 99.3717 57.5905 98.6622 58.9855C98.4257 59.4792 98.3612 59.8655 98.6622 60.3591C99.7802 62.2049 100.64 64.158 101.156 66.2399C101.264 66.7121 101.543 66.9267 102.016 67.077C103.564 67.5277 105.069 68.0643 106.617 68.515C107.24 68.6867 107.434 69.0086 107.412 69.631C107.369 70.9188 107.348 72.2066 107.412 73.4943C107.434 74.1167 107.197 74.3743 106.638 74.5245C105.198 74.9538 103.801 75.4903 102.339 75.8337C101.371 76.0698 101.285 76.7352 101.113 77.4649C100.963 78.1088 100.705 78.4737 100.146 77.7439C99.9737 77.5293 99.7372 77.3361 99.5437 77.143C98.5332 76.1342 97.3938 75.2113 96.5338 74.0738C95.6309 72.8719 96.3833 71.391 96.2973 70.0388C95.7169 62.3552 89.4176 55.8949 81.6779 55.1866C71.8743 54.2852 63.7906 61.3679 63.3607 71.1978C63.0167 79.4824 69.6599 87.0802 77.9371 87.8958C79.399 88.046 80.8609 88.1104 82.3229 87.8528C82.9464 87.7455 83.3978 87.9172 83.8278 88.3894C85.0103 89.6342 86.2357 90.8147 87.4827 92.0381Z" fill="white"/>
<path d="M69.4664 68.5794C71.1433 70.1461 72.7343 71.6485 74.3037 73.1509C76.6686 75.4045 79.829 75.4474 82.0649 73.2368C84.3008 71.0046 84.3223 67.8282 82.0434 65.4887C80.474 63.879 78.8615 62.3337 77.1201 60.6167C79.9795 59.8226 82.4949 60.1231 84.9028 61.3464C89.9336 63.879 92.234 69.5881 90.3636 74.8679C90.1056 75.5977 90.3206 75.9625 90.772 76.4347C95.8028 81.4355 100.812 86.4363 105.821 91.4586C108.1 93.7551 107.649 97.0818 104.897 98.4769C103.263 99.2925 101.586 98.992 100.103 97.554C97.6948 95.1931 95.3299 92.8107 92.9435 90.4284C90.1916 87.6811 87.4182 84.9339 84.6663 82.1438C84.2148 81.6931 83.8278 81.5214 83.1829 81.736C76.4106 84.0969 69.1654 78.9244 68.9289 71.5197C68.9289 70.5325 69.0794 69.6096 69.4664 68.5794Z" fill="white"/>
</g>
<defs>
<filter id="filter0_b_82_158" x="-18.9486" y="-27.0361" width="198.947" height="198.947" filterUnits="userSpaceOnUse" color-interpolation-filters="sRGB">
<feFlood flood-opacity="0" result="BackgroundImageFix"/>
<feGaussianBlur in="BackgroundImageFix" stdDeviation="18.8513"/>
<feComposite in2="SourceAlpha" operator="in" result="effect1_backgroundBlur_82_158"/>
<feBlend mode="normal" in="SourceGraphic" in2="effect1_backgroundBlur_82_158" result="shape"/>
</filter>
<filter id="filter1_d_82_158" x="46.8214" y="44.0674" width="66.1011" height="66.1009" filterUnits="userSpaceOnUse" color-interpolation-filters="sRGB">
<feFlood flood-opacity="0" result="BackgroundImageFix"/>
<feColorMatrix in="SourceAlpha" type="matrix" values="0 0 0 0 0 0 0 0 0 0 0 0 0 0 0 0 0 0 127 0" result="hardAlpha"/>
<feOffset dy="5.50841"/>
<feGaussianBlur stdDeviation="2.75421"/>
<feComposite in2="hardAlpha" operator="out"/>
<feColorMatrix type="matrix" values="0 0 0 0 0 0 0 0 0 0 0 0 0 0 0 0 0 0 0.5 0"/>
<feBlend mode="normal" in2="BackgroundImageFix" result="effect1_dropShadow_82_158"/>
<feBlend mode="normal" in="SourceGraphic" in2="effect1_dropShadow_82_158" result="shape"/>
</filter>
<linearGradient id="paint0_linear_82_158" x1="13.4866" y1="1.09096" x2="173.674" y2="95.9981" gradientUnits="userSpaceOnUse">
<stop offset="0.00716879" stop-color="#737373"/>
<stop offset="0.175" stop-color="white"/>
<stop offset="0.365" stop-color="#737373"/>
<stop offset="0.691978" stop-color="white"/>
<stop offset="0.955" stop-color="#737373"/>
</linearGradient>
<linearGradient id="paint1_linear_82_158" x1="79.6785" y1="23.5949" x2="81.3094" y2="118.18" gradientUnits="userSpaceOnUse">
<stop stop-color="#DF0025"/>
<stop offset="1" stop-color="#9C0016"/>
</linearGradient>
</defs>
</svg>
