{"asset":{"version":"2.0","generator":"THREE.GLTFExporter r169"},"scenes":[{"nodes":[0]}],"scene":0,"nodes":[{"mesh":0}],"bufferViews":[{"buffer":0,"byteOffset":0,"byteLength":42840,"target":34962,"byteStride":12},{"buffer":0,"byteOffset":42840,"byteLength":7140,"target":34963}],"buffers":[{"byteLength":49980,"uri":"data:application/octet-stream;base64,"}],"accessors":[{"bufferView":0,"componentType":5126,"count":3570,"max":[25.65761947631836,0.3421075642108917,49.12006378173828],"min":[-24.542383193969727,0.3421075642108917,-49.279937744140625],"type":"VEC3"},{"bufferView":1,"componentType":5123,"count":3570,"max":[3569],"min":[0],"type":"SCALAR"}],"materials":[{"pbrMetallicRoughness":{"metallicFactor":0,"roughnessFactor":1}}],"meshes":[{"primitives":[{"mode":4,"attributes":{"POSITION":0},"indices":1,"material":0}]}]}